<svg xmlns="http://www.w3.org/2000/svg" xmlns:xlink="http://www.w3.org/1999/xlink" width="40"
    height="20" viewBox="0 0 40 20">
    <path fill="#1eb53a" d="M0 0h40v20H0z" />
    <path fill="#0099b5" d="M0 0h40v10H0z" />
    <path fill="#ce1126" d="M0 6.4h40v7.2H0z" />
    <path fill="#fff" d="M0 6.8h40v6.4H0z" />
    <path cx="140" cy="80" r="60" fill="#fff"
        d="M8 3.2A2.4 2.4 0 0 1 5.6 5.6A2.4 2.4 0 0 1 3.2 3.2A2.4 2.4 0 0 1 8 3.2z" />
    <path cx="160" cy="80" r="60" fill="#0099b5"
        d="M8.8 3.2A2.4 2.4 0 0 1 6.4 5.6A2.4 2.4 0 0 1 4 3.2A2.4 2.4 0 0 1 8.8 3.2z" />
    <g transform="matrix(2 0 0 2 272 128)" fill="#fff">
        <g id="e">
            <g id="d">
                <g id="c">
                    <g id="b">
                        <path id="a" d="M0 -0.24v0.24h0.12" transform="rotate(18 0 -6)" />
                        <use xlink:href="#a" transform="scale(-1 1)" width="100%" height="100%" />
                    </g>
                    <use xlink:href="#b" transform="rotate(72)" width="100%" height="100%" />
                </g>
                <use xlink:href="#b" transform="rotate(-72)" width="100%" height="100%" />
                <use xlink:href="#c" transform="rotate(144)" width="100%" height="100%" />
            </g>
            <use xlink:href="#d" y="-24" width="100%" height="100%" />
            <use xlink:href="#d" y="-48" width="100%" height="100%" />
        </g>
        <use xlink:href="#e" x="24" width="100%" height="100%" />
        <use xlink:href="#e" x="48" width="100%" height="100%" />
        <use xlink:href="#d" x="-48" width="100%" height="100%" />
        <use xlink:href="#d" x="-24" width="100%" height="100%" />
        <use xlink:href="#d" x="-24" y="-24" width="100%" height="100%" />
    </g>
</svg>